<svg id="Lag_1" data-name="Lag 1" xmlns="http://www.w3.org/2000/svg" viewBox="0 0 1087 679.02"><defs><style>.cls-1{fill:#799baa;}.cls-2{fill:#246693;}.cls-3{fill:#d1d2d3;}.cls-4{fill:#0e3059;}.cls-5{fill:#7ab8d3;}.cls-10,.cls-11,.cls-12,.cls-13,.cls-14,.cls-15,.cls-16,.cls-6,.cls-7{isolation:isolate;}.cls-10,.cls-12,.cls-13,.cls-6{font-size:61px;}.cls-15,.cls-16,.cls-6{font-family:GillSans, Gill Sans;}.cls-7{font-size:18px;font-family:Avenir-Black, Avenir;font-weight:800;}.cls-8{fill:#fff;}.cls-9{fill:#8c0e1e;}.cls-10{font-family:GillSans-Light, Gill Sans;font-weight:300;}.cls-12,.cls-13{font-family:GillSans-Bold, Gill Sans;}.cls-12,.cls-13,.cls-14{font-weight:700;}.cls-13{letter-spacing:0.01em;}.cls-14{font-size:48px;font-family:FedraEleven-Bold, FedraEleven;}.cls-15,.cls-16{font-size:22px;}.cls-16{letter-spacing:-0.2em;}.cls-17{fill:#333f4e;}</style></defs><rect class="cls-1" width="1087" height="679.02"/><rect class="cls-2" x="200" y="283" width="101" height="99"/><rect class="cls-3" x="341" y="445" width="101" height="95"/><rect class="cls-4" x="61" y="283" width="101" height="100"/><rect x="198" y="446" width="101" height="95"/><rect class="cls-5" x="477" y="338" width="108" height="46"/><text class="cls-6" transform="translate(808.85 256.96)">Gill Sans</text><text class="cls-7" transform="translate(198.62 566.86)">#000000</text><rect class="cls-1" x="340.5" y="284.5" width="100" height="98"/><path class="cls-8" d="M440,285v97H341V285h99m1-1H340v99H441Z"/><rect class="cls-9" x="480" y="473" width="101" height="67"/><text class="cls-10" transform="translate(815.43 175.51)">Gill Sans</text><g class="cls-11"><text class="cls-12" transform="translate(756.43 103.21)">Gill S</text><text class="cls-13" transform="translate(916.61 103.21)">a</text><text class="cls-12" transform="translate(952.3 103.21)">ns</text></g><rect class="cls-8" x="618" y="500" width="107" height="41"/><text class="cls-7" transform="translate(338.16 565.66)">#EDEDED</text><text class="cls-7" transform="translate(58.16 564.66)">#333f4e</text><text class="cls-7" transform="translate(615.16 563.66)">#FFFFFF</text><text class="cls-14" transform="translate(56.97 93.28)">STYLEGUIDE</text><text class="cls-7" transform="translate(58.89 408.73)">#0E3059</text><text class="cls-7" transform="translate(198.89 408.73)">#246693</text><text class="cls-7" transform="translate(336.89 408.73)">#799BAA</text><text class="cls-7" transform="translate(477.89 408.73)">#7AB8D3</text><g class="cls-11"><text class="cls-15" transform="translate(819.91 299.24)">brødtekste</text><text class="cls-16" transform="translate(917.71 299.24)">r,</text><text class="cls-15" transform="translate(926.84 299.24)"><tspan xml:space="preserve"> h1</tspan></text><text class="cls-16" transform="translate(954.95 299.24)">,</text><text class="cls-15" transform="translate(957.57 299.24)"><tspan xml:space="preserve"> h2</tspan></text><text class="cls-16" transform="translate(985.68 299.24)">,</text><text class="cls-15" transform="translate(988.3 299.24)"><tspan xml:space="preserve"> h3</tspan></text></g><rect class="cls-17" x="60" y="445" width="101" height="95"/><text class="cls-7" transform="translate(476.88 565.29)">#8c0e1e</text></svg>